<svg xmlns="http://www.w3.org/2000/svg" viewBox="0 0 64 64" fill="none">
  <rect width="64" height="64" rx="14" fill="#0a0c14"/>
  <rect x="1" y="1" width="62" height="62" rx="13" stroke="#5eead4" stroke-opacity="0.45"/>
  <path d="M18 24c0-4 3-7 7-7h14c4 0 7 3 7 7v4c0 4-3 7-7 7H25c-4 0-7-3-7-7v-4Z" fill="#4a6fd4"/>
  <path d="M16 31h32v8c0 4-3 7-7 7H23c-4 0-7-3-7-7v-8Z" fill="#2f4ea8"/>
  <circle cx="24" cy="28" r="2.5" fill="#5eead4"/>
  <circle cx="40" cy="28" r="2.5" fill="#5eead4"/>
  <path d="M12 34h6v10c0 2-1 3-3 3s-3-1-3-3V34Zm40 0h-6v10c0 2 1 3 3 3s3-1 3-3V34Z" fill="#4a6fd4"/>
  <path d="M28 44h8v6c0 2-1 3-3 3h-2c-2 0-3-1-3-3v-6Z" fill="#5eead4"/>
</svg>
